<?xml version="1.0" encoding="utf-8"?>
<!-- Generator: Adobe Illustrator 21.0.0, SVG Export Plug-In . SVG Version: 6.00 Build 0)  -->
<svg version="1.1" id="group_image" xmlns="http://www.w3.org/2000/svg" xmlns:xlink="http://www.w3.org/1999/xlink" x="0px"
	 y="0px" viewBox="0 0 212.7 212.7" style="enable-background:new 0 0 212.7 212.7;" xml:space="preserve">
<style type="text/css">
	.st0{fill-rule:evenodd;clip-rule:evenodd;fill:#C18463;}
	.st1{fill-rule:evenodd;clip-rule:evenodd;fill:#EDAC64;}
	.st2{fill-rule:evenodd;clip-rule:evenodd;fill:#CE5024;}
	.st3{fill:#FCF0F7;stroke:#FFF5FB;stroke-width:0.4727;stroke-miterlimit:10;}
	.st4{fill:#FCF0F7;stroke:#FFF5FB;stroke-width:0.7867;stroke-miterlimit:10;}
	.st5{fill:#FCF0F7;stroke:#FFF5FB;stroke-width:0.6134;stroke-miterlimit:10;}
	.st6{fill-rule:evenodd;clip-rule:evenodd;fill:#BA3E3E;}
	.st7{fill-rule:evenodd;clip-rule:evenodd;fill:#FF001F;}
	.st8{fill-rule:evenodd;clip-rule:evenodd;fill:#FF4F4F;}
	.st9{fill-rule:evenodd;clip-rule:evenodd;fill:#FFD966;}
	.st10{fill-rule:evenodd;clip-rule:evenodd;fill:#FF7373;}
	.st11{fill:#F4F4D9;stroke:#E6FFCA;stroke-width:0.9121;stroke-miterlimit:10;}
	.st12{fill:#DFFFBD;}
	.st13{fill:#F4F4D9;stroke:#E6FFCA;stroke-miterlimit:10;}
	.st14{fill:#F4F4D9;stroke:#E6FFCA;stroke-width:0.6899;stroke-miterlimit:10;}
	.st15{fill-rule:evenodd;clip-rule:evenodd;fill:#1E1C1E;}
	.st16{fill-rule:evenodd;clip-rule:evenodd;fill:#5B575B;}
	.st17{fill-rule:evenodd;clip-rule:evenodd;fill:#5ABD5C;}
	.st18{fill-rule:evenodd;clip-rule:evenodd;fill:#39913B;}
	.st19{fill-rule:evenodd;clip-rule:evenodd;fill:#FFE9BA;}
	.st20{fill-rule:evenodd;clip-rule:evenodd;fill:#CEAB6E;}
</style>
<circle class="st0" cx="106.3" cy="106.3" r="106.3"/>
<path class="st1" d="M201.9,106.5c0,124.9-192.6,123.5-192.6,0C9.2-16.9,201.9-18.7,201.9,106.5z"/>
<path class="st2" d="M90.2,19.5c7.5,4.8,8.4,5.2,17.2,3c5.9-1.5,10.6-4.7,15.8-0.5c4.8,4-0.9,7.6,3.6,10.4
	c5.8,3.6,15.6-10.6,24.8-4.3c4,2.8,4.8,11.6,8.3,13.8c5.7,3.6,9.3-2.7,13.7,6c1,2,0.2,4.3,1.3,6.3c2.2,3.9,5.1,3.3,8,5.5
	c7.4,5.7,4.9,10.5-3.6,16c3.7,1.8,9.6,3.4,12.8,5.4c2.8,1.8,5.8,0.7,5.8,6c0,4.2-2.9,1.5-4.3,5.1c-2.3,6,1.2,5.4,2.3,10.5
	c1.6,7.2-1.3,4.7-4.8,10c-3.7,5.6-0.2,9.1,0.6,14.4c1.1,7.8-1,7.7-5.7,11.3c-5.5,4.2-5,3.8-5.1,11.2c-0.1,6.8,0.3,11.1-7,12.1
	c-4.5,0.6-4.8-6.3-9.1,0.5c-3.1,4.9,0.8,13.3-6.8,16.2c-5.6,2.1-6.7-3.2-11.1-0.5c-4.8,2.9-0.8,11-9.2,11c-4.8,0-9.2-8.3-12.3-7.9
	c-4.9,0.6-4.8,11.4-7.6,13.4c-2.7,1.9-14,1.1-17.1,0.1c-5.3-1.8-0.6-7.6-1.2-12.2c-0.3-2.2-8.8-0.8-10.4,0c-1,0.4-7.1,6.8-7.3,6.8
	c-4.7,0.2-6.1-11.1-10-12.8c-8.1-3.4-12.6,0.2-19.7-2.4c5.6-6.5-7.6-3.2-10-5.3c-5.5-4.8,1.1-7.6-0.4-11c-2.7-5.8-21.7,3.8-16.5-10
	c1.4-3.8,6.3-4.2,7.3-7.2c2.6-8-7.9-4.6-10.3-6c-0.1-0.1-5.1-9.3-5.3-8.8c0.9-2.2,11.6-3,14.7-4.4c-4.9-3.7-13-6.6-15.3-11.4
	c-7.6-15.9,15.6-7.9,15.6-15.9c0-7.3-26.2-4.3-12.2-13.9c5.5-3.8,11.3-1.8,10.4-10c-0.7-6.1-6-7.5,0-14.4c1.4,0.7,8.9,5,10.2,4.2
	c3.2-2-1.6-7.8-1-10.6c1.4-6.9,10.2-9.3,15.3-4.6c7.2-8.3-4.8-15.5,12-13.3c7.4,1,9.7,1.6,13.8-3.2C81.9,26.2,82.3,14.5,90.2,19.5z"
	/>
<path class="st3" d="M133.8,90c1.3-2.6,6.5-4.9,11.7-4.1s8.5,2,8.5,2s-2.4,3.6-1.9,6c0.5,2.3-6.6-3.2-9.5-1.7
	c-2.8,1.5-8.8,1.7-8.8,1.7S133.3,90.8,133.8,90z"/>
<path class="st4" d="M62.7,66.7c1.1-4.5,9.2-10.8,18.9-12.9c9.7-2.1,16.1-2.5,16.1-2.5s-2.5,6.5-0.5,9.4c2,2.9-13.3-0.3-17.7,3.6
	c-4.3,3.9-15,7.8-15,7.8S62.3,68.2,62.7,66.7z"/>
<path class="st5" d="M97.8,160.4c-3.6-0.4-9.3-6-12-13.2c-2.6-7.2-3.6-12.2-3.6-12.2s5.3,1.2,7.3-0.6c2.1-1.8,1.1,10.3,4.6,13.3
	c3.5,2.9,7.6,10.8,7.6,10.8S99,160.6,97.8,160.4z"/>
<path class="st4" d="M78.3,112.2c-4.2,2-14.2-0.2-22-6.4S44.2,94.9,44.2,94.9s6.6-2.2,7.6-5.6c1-3.4,8.2,10.5,13.9,11.4
	s15.5,6.6,15.5,6.6S79.7,111.5,78.3,112.2z"/>
<g>
	<path class="st6" d="M66.8,64.1c14-10.5,25.3,23,1.1,26.6c-6.3,0.9-13.6-2.7-15-9.4c-1.2-5.6,3.5-10.1,8.7-13.2
		C63.8,66.8,65.6,65,66.8,64.1z"/>
	<path class="st7" d="M67.7,65.4c13.8-10,25.3,23,1.1,26.6c-6.3,0.9-13.6-2.7-15-9.4c-0.8-3.8,0.1-7.2,3.4-9.6
		c2-1.4,4.2-2.1,6.6-1.9C64.5,68.8,65.7,66.9,67.7,65.4z"/>
	<path class="st6" d="M70.6,67.4c-6.9,4.1,0.6,17.6,7.7,13.5C85.2,76.9,77.6,63.2,70.6,67.4z"/>
	<path class="st6" d="M58.3,76.4c6-5.3,16.2,5.9,10.2,11.3C62.6,93.1,52.2,81.8,58.3,76.4z"/>
	<path class="st8" d="M62.6,71.4c0.5,1.5,2.1,3.3,1.4,5.2c-0.7,1.8-1.3,1.6-1.7,2.4c-0.4,0.8-4-0.1-2.5,0.8c1.5,0.9-2.9,2.3-1.1,2.2
		c1.8-0.1,4.7-0.7,3.3,0.3c-1.4,1-1.7,2-0.2,1c1.6-1.1,2.5-1,1.3,0.2c-1.2,1.2-1.9,3-0.4,1.7c1.5-1.3,1.8-1.4,2,0.3
		c0.2,1.7,0.4,2.6,1.2,0.6c0.9-2,1.3-1.9,1.9-1c0.6,0.9,0.3-0.1,1.2-0.4c0.9-0.3,3.4-0.3,5.1,1.7c1.3,1.5,2.5,2.6,2.8,2.4
		c0.3-0.2-0.5-1.9-1.6-3.7c-1.4-2.3-0.8-4.1-0.3-4.9c0.5-0.8,1.4-0.2,0.7-1c-0.7-0.8-0.6-1.3,1.5-1.5c2.2-0.2,1.4-0.6-0.2-1.3
		c-1.5-0.7-1.4-1,0.4-2c1.7-1-0.2-0.8-1.7-0.1c-1.5,0.7-1.3-0.2,0.2-1.3c1.5-1.2,0.4-1.2-1-0.2c-1.4,1,0.1-1.5,0.8-3.2
		c0.6-1.7-2,2.1-2.4,0.4c-0.4-1.7-0.6,2-1.5,2.1C71,72.1,71,72.8,69,72.9c-1.9,0.1-4.2-1.5-5.3-2.7c-0.6-0.6-1.3-1.3-1.5-1.2
		C61.8,69.1,62.1,69.5,62.6,71.4z"/>
	<path class="st9" d="M58.9,78.8c0.8-0.3,1.3,0,1.4,0.9C59.5,79.9,58.8,79.7,58.9,78.8z"/>
	<path class="st9" d="M57.7,82.3c0.1-0.8,0.6-1.1,1.4-0.8C59.1,82.4,58.5,82.6,57.7,82.3z"/>
	<path class="st9" d="M60.5,83.8c0.1-0.8,0.6-1.4,1.4-0.8C61.8,83.8,61,84,60.5,83.8z"/>
	<path class="st9" d="M61.8,85.6c-0.1-0.9,0.3-1.2,1.2-1.1C63,85.3,62.5,85.9,61.8,85.6z"/>
	<path class="st9" d="M65.2,87.6c-0.5-0.7-0.5-1.5,0.3-1.6C66,86.6,66.2,87.2,65.2,87.6z"/>
	<path class="st9" d="M72.8,68.6c-0.5,0.7-0.4,1.2,0.4,1.6C73.7,69.6,73.8,68.9,72.8,68.6z"/>
	<path class="st9" d="M76.5,68.6c-1.1-0.3-1.3,0.2-1.2,1.1C76.1,69.8,76.5,69.5,76.5,68.6z"/>
	<path class="st9" d="M77,71.7c-0.9-0.1-1.3,0.2-1.2,1.1C76.7,73,77.1,72.6,77,71.7z"/>
	<path class="st9" d="M78.4,73.5c-0.7-0.6-1.3-0.1-1.5,0.8C77.8,74.6,78.2,74.3,78.4,73.5z"/>
	<path class="st9" d="M79.2,77.3c-0.5-0.7-1-1-1.6-0.2C78.1,77.9,78.6,77.9,79.2,77.3z"/>
	<path class="st10" d="M62.7,70.5c0.4,0.6,4.6,4.2,5.4,4.3c1.4,0.3,3.1-1.6,3.1-0.6c0,0.5,3.3-3.4,3.2-3.2c-0.6,1.2-2.1,4.8-0.9,4.7
		c0.6-0.1,1-0.4,1.6-0.3c-0.2,0.7-1.1,7.1-2.3,8c-1.5,1.1-7.4,0.3-8.3-0.2c0.1-0.5,0.5-0.9,0.8-1.4c0.5-1.1-3.5-0.4-4.7-0.6
		c-1-0.1,4.8-0.6,5.2-2.9C65.8,77.5,62.5,70.1,62.7,70.5z"/>
</g>
<g>
	<path class="st6" d="M108.1,35.2c16.1,6.8-6.9,33.5-22.3,14.5c-4-5-4.6-13,0.5-17.7c4.2-3.8,10.5-2.2,15.8,0.8
		C104.3,34,106.7,34.6,108.1,35.2z"/>
	<path class="st7" d="M107.5,36.6c15.6,6.7-6.9,33.5-22.3,14.5c-4-5-4.6-13,0.5-17.7c2.9-2.6,6.2-3.5,10-1.9c2.3,1,3.9,2.5,5,4.7
		C102.9,35.5,105.2,35.7,107.5,36.6z"/>
	<path class="st6" d="M107.2,40.1c-7-3.8-14.9,9.5-7.8,13.5C106.4,57.5,114.4,44,107.2,40.1z"/>
	<path class="st6" d="M93.2,34.1c7.6,2.5,3.2,16.9-4.6,14.5C81,46.3,85.5,31.6,93.2,34.1z"/>
	<path class="st8" d="M99.8,35.3c-1.1,1.2-1.8,3.5-3.7,3.8c-1.9,0.3-2.1-0.3-3-0.3c-0.9,0.1-1.9-3.5-1.9-1.7c0,1.8-3.4-1.4-2.4,0.2
		c1,1.5,3,3.7,1.5,3c-1.6-0.7-2.6-0.4-0.9,0.4c1.7,0.8,2.1,1.6,0.5,1.2c-1.6-0.4-3.6-0.1-1.7,0.5c1.9,0.6,2.1,0.9,0.8,1.9
		c-1.3,1-2,1.6,0.1,1.3c2.2-0.3,2.3,0.2,1.8,1.1c-0.5,0.9,0.2,0.2,0.9,0.8c0.7,0.6,2,2.8,1.2,5.3c-0.6,1.9-1,3.5-0.7,3.7
		c0.3,0.1,1.3-1.4,2.3-3.2c1.3-2.3,3.1-2.8,4-2.7c0.9,0.1,0.9,1.1,1.2,0.1c0.4-1,0.8-1.2,2.1,0.6c1.3,1.8,1.2,0.9,1.1-0.8
		c-0.2-1.7,0.1-1.7,1.9-0.7c1.8,1,0.6-0.6-0.8-1.6c-1.4-0.9-0.5-1.2,1.2-0.5c1.7,0.7,1.2-0.3-0.4-0.9c-1.6-0.7,1.4-0.7,3.2-1
		c1.8-0.3-2.8-0.7-1.6-1.9c1.3-1.2-2,0.5-2.6-0.2c-0.5-0.7-1.1-0.4-2.2-2c-1.1-1.6-0.8-4.4-0.4-5.9c0.2-0.8,0.4-1.8,0.3-2
		C101.3,33.4,101.1,33.9,99.8,35.3z"/>
	<path class="st9" d="M91.5,35.8c0.7,0.6,0.7,1.1,0,1.7C90.8,36.9,90.6,36.2,91.5,35.8z"/>
	<path class="st9" d="M87.8,36.6c0.8-0.3,1.3,0,1.4,0.8C88.4,37.9,88,37.4,87.8,36.6z"/>
	<path class="st9" d="M88,39.7c0.8-0.3,1.5-0.2,1.4,0.8C88.6,40.8,88.1,40.3,88,39.7z"/>
	<path class="st9" d="M87,41.8c0.7-0.5,1.2-0.3,1.6,0.4C87.9,42.7,87.2,42.5,87,41.8z"/>
	<path class="st9" d="M87.1,45.7c0.3-0.8,1-1.2,1.6-0.5C88.3,46,88,46.4,87.1,45.7z"/>
	<path class="st9" d="M107.3,42.6c-0.9-0.1-1.2,0.3-1.2,1.1C106.9,43.9,107.5,43.7,107.3,42.6z"/>
	<path class="st9" d="M109.2,45.8c-0.3-1.1-0.9-1-1.6-0.5C107.9,46.1,108.5,46.3,109.2,45.8z"/>
	<path class="st9" d="M106.8,47.8c-0.3-0.8-0.9-1-1.6-0.5C105.5,48.2,106.1,48.3,106.8,47.8z"/>
	<path class="st9" d="M106,49.9c0.2-0.9-0.6-1.1-1.4-0.9C104.7,49.9,105.2,50.2,106,49.9z"/>
	<path class="st9" d="M103.1,52.6c0.4-0.8,0.3-1.4-0.7-1.5C102,51.9,102.2,52.4,103.1,52.6z"/>
	<path class="st10" d="M100.6,34.9c-0.4,0.7-1.3,6-1,6.8c0.5,1.4,3,1.8,2.1,2.3c-0.4,0.2,4.5,1.1,4.3,1.1c-1.3,0.1-5.2,0.7-4.5,1.6
		c0.3,0.5,0.8,0.7,1.1,1.2c-0.7,0.2-6.7,2.6-8,2.1c-1.7-0.7-4-6.2-4-7.3c0.5-0.2,1,0,1.6-0.1c1.1-0.1-1.4-3.2-1.9-4.4
		c-0.4-1,3,3.8,5.1,3C96.1,41.1,100.8,34.5,100.6,34.9z"/>
</g>
<g>
	<path class="st6" d="M158.8,58.3c17.1,3.7-0.6,34.2-19.3,18.4c-4.9-4.1-6.9-12-2.8-17.5c3.4-4.5,9.9-4.1,15.6-2.2
		C154.8,57.8,157.3,58,158.8,58.3z"/>
	<path class="st7" d="M158.4,59.8c16.6,3.7-0.6,34.2-19.3,18.4c-4.9-4.1-6.9-12-2.8-17.5c2.3-3.1,5.5-4.6,9.5-3.8
		c2.4,0.5,4.3,1.8,5.8,3.7C153.7,59.6,156,59.3,158.4,59.8z"/>
	<path class="st6" d="M158.8,63.2c-7.6-2.5-12.9,12.1-5.1,14.7C161.2,80.5,166.6,65.8,158.8,63.2z"/>
	<path class="st6" d="M144,60c7.9,1,6.3,16.1-1.8,15.1C134.2,74.2,135.9,58.9,144,60z"/>
	<path class="st8" d="M150.6,59.9c-0.9,1.3-1.1,3.8-3,4.4c-1.8,0.7-2.1,0.1-3,0.3c-0.8,0.2-2.5-3.1-2.2-1.3c0.3,1.8-3.6-0.7-2.4,0.6
		c1.3,1.3,3.6,3,2,2.7c-1.7-0.4-2.7,0.1-0.8,0.5c1.8,0.5,2.4,1.2,0.7,1.1c-1.7-0.1-3.5,0.5-1.6,0.8c2,0.3,2.2,0.4,1.1,1.7
		c-1.1,1.2-1.7,2,0.4,1.3c2.1-0.7,2.3-0.3,2,0.8c-0.3,1,0.3,0.1,1.1,0.6c0.8,0.5,2.5,2.3,2.1,5c-0.3,1.9-0.3,3.6,0,3.7
		c0.3,0.1,1.1-1.6,1.7-3.6c0.8-2.5,2.6-3.3,3.5-3.4c0.9-0.1,1,1,1.2-0.1c0.2-1,0.5-1.3,2.1,0.2c1.6,1.5,1.4,0.6,0.9-1
		c-0.5-1.6-0.2-1.7,1.7-1.1c1.9,0.6,0.5-0.7-1.1-1.4c-1.5-0.6-0.7-1.1,1.1-0.7c1.8,0.4,1.1-0.5-0.5-0.8c-1.7-0.4,1.2-0.9,2.9-1.6
		c1.7-0.6-2.9-0.1-1.9-1.6c1-1.4-1.9,0.8-2.6,0.3c-0.7-0.6-1.2-0.1-2.5-1.5c-1.4-1.4-1.6-4.2-1.5-5.7c0.1-0.8,0.1-1.9-0.1-2
		C151.7,57.8,151.6,58.3,150.6,59.9z"/>
	<path class="st9" d="M142.5,62c0.7,0.4,0.8,1,0.3,1.6C142.1,63.2,141.8,62.5,142.5,62z"/>
	<path class="st9" d="M139.1,63.4c0.7-0.4,1.3-0.3,1.6,0.5C139.9,64.6,139.4,64.2,139.1,63.4z"/>
	<path class="st9" d="M139.8,66.5c0.7-0.5,1.5-0.4,1.6,0.5C140.7,67.4,140,67,139.8,66.5z"/>
	<path class="st9" d="M139.3,68.6c0.6-0.6,1.2-0.6,1.6,0.1C140.3,69.4,139.6,69.3,139.3,68.6z"/>
	<path class="st9" d="M140.1,72.5c0.2-0.8,0.8-1.3,1.4-0.8C141.3,72.5,141.1,73,140.1,72.5z"/>
	<path class="st9" d="M159.3,65.8c-0.9,0.1-1.2,0.5-1,1.3C159.2,67,159.8,66.7,159.3,65.8z"/>
	<path class="st9" d="M161.8,68.5c-0.5-1-1-0.8-1.6-0.2C160.6,69.1,161.2,69.1,161.8,68.5z"/>
	<path class="st9" d="M159.8,71c-0.5-0.7-1-0.8-1.6-0.2C158.6,71.6,159.2,71.5,159.8,71z"/>
	<path class="st9" d="M159.4,73.2c0-1-0.8-1-1.5-0.6C158.1,73.4,158.6,73.6,159.4,73.2z"/>
	<path class="st9" d="M157,76.3c0.2-0.8,0.1-1.4-1-1.3C155.9,75.8,156.2,76.2,157,76.3z"/>
	<path class="st10" d="M151.3,59.4c-0.2,0.7-0.1,6.2,0.3,6.9c0.8,1.3,3.3,1.2,2.5,1.9c-0.3,0.3,4.7,0.2,4.5,0.3
		c-1.3,0.4-5,1.6-4.1,2.4c0.4,0.4,0.9,0.5,1.3,1c-0.7,0.3-6.1,3.8-7.5,3.5c-1.8-0.4-5.1-5.4-5.3-6.4c0.5-0.3,1-0.2,1.6-0.4
		c1.1-0.4-2-2.9-2.7-3.9c-0.6-0.9,3.6,3.2,5.6,2C148.1,66.3,151.5,58.9,151.3,59.4z"/>
</g>
<g>
	<path class="st6" d="M58.8,129.1c5.5-16.6,33.9,4.4,16.1,21.2c-4.6,4.4-12.7,5.6-17.7,0.9c-4.1-3.9-2.9-10.3-0.4-15.8
		C58,133,58.4,130.6,58.8,129.1z"/>
	<path class="st7" d="M60.4,129.7c5.5-16.1,33.9,4.4,16.1,21.2c-4.6,4.4-12.7,5.6-17.7,0.9c-2.8-2.7-4-5.9-2.7-9.8
		c0.8-2.3,2.2-4.1,4.3-5.3C59.6,134.3,59.6,132,60.4,129.7z"/>
	<path class="st6" d="M63.8,129.6c-3.3,7.3,10.6,14.1,14,6.7C81.2,129.1,67.1,122.2,63.8,129.6z"/>
	<path class="st6" d="M58.9,144c1.9-7.8,16.6-4.5,14.8,3.5C72,155.3,57,151.9,58.9,144z"/>
	<path class="st8" d="M59.6,137.4c1.2,1,3.6,1.5,4.1,3.4c0.5,1.9-0.2,2.1,0,3c0.1,0.9-3.4,2.2-1.6,2.1c1.8-0.1-1.1,3.5,0.3,2.4
		c1.4-1.1,3.4-3.3,2.9-1.7c-0.6,1.6-0.2,2.6,0.4,0.9c0.7-1.8,1.5-2.2,1.2-0.6c-0.3,1.6,0.1,3.6,0.6,1.6c0.5-1.9,0.7-2.2,1.8-0.9
		c1.1,1.3,1.8,1.9,1.3-0.2c-0.4-2.1,0-2.3,1-1.9c1,0.4,0.2-0.3,0.7-1c0.6-0.7,2.6-2.2,5.2-1.6c1.9,0.5,3.6,0.7,3.7,0.4
		c0.1-0.3-1.5-1.2-3.4-2.1c-2.4-1.1-3-2.9-3-3.8c0-0.9,1.1-0.9,0-1.2c-1-0.3-1.3-0.7,0.4-2.1c1.7-1.4,0.8-1.3-0.9-1
		c-1.7,0.3-1.7,0-0.9-1.8c0.8-1.8-0.7-0.5-1.5,0.9c-0.8,1.5-1.1,0.6-0.6-1.2c0.6-1.8-0.3-1.2-0.9,0.4c-0.6,1.6-0.8-1.3-1.2-3.1
		c-0.4-1.8-0.4,2.9-1.8,1.7c-1.3-1.2,0.6,2,0,2.6c-0.6,0.6-0.3,1.1-1.8,2.4c-1.5,1.2-4.3,1.2-5.9,0.9c-0.8-0.1-1.8-0.3-2-0.1
		C57.6,136.1,58.1,136.2,59.6,137.4z"/>
	<path class="st9" d="M60.7,145.7c0.5-0.7,1.1-0.7,1.6-0.1C61.9,146.3,61.2,146.5,60.7,145.7z"/>
	<path class="st9" d="M61.8,149.2c-0.4-0.8-0.1-1.3,0.7-1.5C63,148.5,62.6,149,61.8,149.2z"/>
	<path class="st9" d="M64.9,148.8c-0.4-0.8-0.3-1.5,0.7-1.5C66,148.1,65.5,148.7,64.9,148.8z"/>
	<path class="st9" d="M67,149.6c-0.5-0.7-0.4-1.2,0.3-1.6C67.9,148.7,67.7,149.4,67,149.6z"/>
	<path class="st9" d="M70.9,149.3c-0.8-0.2-1.2-0.9-0.6-1.5C71.1,148,71.6,148.3,70.9,149.3z"/>
	<path class="st9" d="M66.3,129.4c0,0.9,0.4,1.2,1.2,1.1C67.6,129.6,67.4,129,66.3,129.4z"/>
	<path class="st9" d="M69.4,127.2c-1.1,0.3-0.9,0.9-0.4,1.6C69.8,128.5,69.9,127.9,69.4,127.2z"/>
	<path class="st9" d="M71.6,129.5c-0.8,0.4-0.9,0.9-0.4,1.6C72,130.7,72.1,130.2,71.6,129.5z"/>
	<path class="st9" d="M73.7,130.1c-1-0.1-1.1,0.7-0.7,1.5C73.8,131.4,74.1,130.9,73.7,130.1z"/>
	<path class="st9" d="M76.6,132.8c-0.8-0.3-1.4-0.2-1.4,0.8C75.9,133.9,76.4,133.7,76.6,132.8z"/>
	<path class="st10" d="M59.2,136.7c0.7,0.3,6.1,0.8,6.9,0.5c1.3-0.6,1.6-3.1,2.2-2.3c0.3,0.4,0.8-4.6,0.8-4.4c0.2,1.3,1,5.1,1.9,4.3
		c0.4-0.4,0.6-0.9,1.1-1.1c0.2,0.7,3.1,6.5,2.7,7.9c-0.6,1.8-5.9,4.4-6.9,4.6c-0.2-0.5-0.1-1-0.2-1.6c-0.2-1.1-3.1,1.6-4.2,2.2
		c-0.9,0.5,3.6-3.3,2.6-5.3C65.7,140.7,58.7,136.5,59.2,136.7z"/>
</g>
<g>
	<path class="st6" d="M111.9,87c14.5-9.9,24.3,24,0,26.6c-6.4,0.7-13.4-3.3-14.6-10c-0.9-5.6,3.9-10,9.2-12.8
		C108.9,89.5,110.7,87.8,111.9,87z"/>
	<path class="st7" d="M112.8,88.3c14.2-9.4,24.3,24,0,26.6c-6.4,0.7-13.4-3.3-14.6-10c-0.6-3.8,0.4-7.1,3.8-9.4
		c2-1.4,4.3-1.9,6.7-1.6C109.4,91.5,110.8,89.7,112.8,88.3z"/>
	<path class="st6" d="M115.6,90.4c-7,3.8-0.2,17.6,7.1,13.9C129.8,100.5,122.7,86.5,115.6,90.4z"/>
	<path class="st6" d="M103,98.9c6.2-5,15.9,6.5,9.7,11.8C106.5,115.7,96.6,104,103,98.9z"/>
	<path class="st8" d="M107.5,94c0.4,1.5,2,3.4,1.2,5.2c-0.8,1.8-1.4,1.6-1.8,2.3c-0.4,0.8-4-0.3-2.5,0.7c1.5,1-3,2.1-1.2,2.1
		c1.8,0,4.7-0.5,3.3,0.4c-1.4,0.9-1.8,2-0.2,1c1.6-1,2.5-0.9,1.3,0.3c-1.2,1.2-2.1,2.9-0.5,1.7c1.6-1.3,1.9-1.3,2,0.4
		c0.1,1.7,0.2,2.6,1.2,0.6c0.9-2,1.4-1.8,1.9-0.9c0.5,0.9,0.3-0.1,1.2-0.4c0.9-0.2,3.4-0.2,5.1,1.9c1.2,1.5,2.4,2.7,2.7,2.6
		c0.3-0.2-0.4-1.9-1.4-3.7c-1.3-2.3-0.6-4.1-0.1-4.9c0.6-0.7,1.4-0.1,0.8-0.9c-0.6-0.8-0.6-1.3,1.6-1.4c2.2-0.1,1.4-0.6-0.1-1.3
		s-1.3-1,0.4-2c1.8-1-0.2-0.8-1.7-0.2c-1.5,0.7-1.3-0.2,0.3-1.3c1.5-1.1,0.4-1.1-1-0.2c-1.4,0.9,0.2-1.5,0.9-3.2
		c0.7-1.7-2.1,2-2.4,0.3c-0.3-1.8-0.7,2-1.6,2c-0.9,0.1-0.9,0.7-2.9,0.8c-2,0-4.1-1.7-5.2-2.9c-0.5-0.6-1.3-1.4-1.5-1.3
		C106.8,91.7,107,92.2,107.5,94z"/>
	<path class="st9" d="M103.4,101.3c0.8-0.2,1.3,0.1,1.4,0.9C104,102.4,103.3,102.2,103.4,101.3z"/>
	<path class="st9" d="M102.1,104.8c0.2-0.8,0.7-1.1,1.5-0.8C103.5,104.9,102.9,105.1,102.1,104.8z"/>
	<path class="st9" d="M104.8,106.3c0.2-0.8,0.7-1.4,1.5-0.8C106.1,106.4,105.3,106.6,104.8,106.3z"/>
	<path class="st9" d="M106,108.2c0-0.9,0.4-1.2,1.2-1.1C107.3,108,106.7,108.5,106,108.2z"/>
	<path class="st9" d="M109.3,110.3c-0.5-0.7-0.4-1.5,0.4-1.6C110.2,109.4,110.4,110,109.3,110.3z"/>
	<path class="st9" d="M117.7,91.7c-0.5,0.7-0.4,1.2,0.3,1.6C118.6,92.7,118.8,92.1,117.7,91.7z"/>
	<path class="st9" d="M121.5,91.9c-1.1-0.4-1.3,0.2-1.3,1.1C121,93.1,121.5,92.7,121.5,91.9z"/>
	<path class="st9" d="M121.8,95c-0.8-0.2-1.3,0.2-1.3,1.1C121.5,96.3,121.8,95.8,121.8,95z"/>
	<path class="st9" d="M123.2,96.8c-0.7-0.7-1.3-0.1-1.5,0.7C122.5,97.9,123,97.6,123.2,96.8z"/>
	<path class="st9" d="M123.8,100.7c-0.4-0.7-1-1-1.6-0.2C122.6,101.2,123.2,101.2,123.8,100.7z"/>
	<path class="st10" d="M107.6,93.1c0.4,0.7,4.4,4.4,5.2,4.5c1.4,0.3,3.1-1.5,3.1-0.5c0,0.5,3.4-3.2,3.3-3c-0.6,1.2-2.3,4.7-1.1,4.6
		c0.6,0,1-0.3,1.6-0.2c-0.2,0.7-1.4,7-2.6,7.9c-1.6,1-7.4,0-8.3-0.6c0.1-0.5,0.6-0.9,0.8-1.4c0.5-1-3.4-0.6-4.7-0.8
		c-1-0.2,4.8-0.4,5.3-2.6C110.4,100.3,107.4,92.7,107.6,93.1z"/>
</g>
<g>
	<path class="st6" d="M149.2,129.5c11.5-13.2,29.6,17.1,6.7,25.8c-6,2.3-13.8,0.2-16.6-6c-2.3-5.2,1.3-10.7,5.7-14.7
		C146.9,132.7,148.2,130.6,149.2,129.5z"/>
	<path class="st7" d="M150.4,130.5c11.3-12.7,29.6,17.1,6.7,25.8c-6,2.3-13.8,0.2-16.6-6c-1.6-3.6-1.4-7,1.3-10.1
		c1.6-1.8,3.7-2.9,6.1-3.2C148,134.5,148.8,132.4,150.4,130.5z"/>
	<path class="st6" d="M153.6,131.8c-5.9,5.5,4.3,17.1,10.4,11.6C169.9,138.1,159.6,126.3,153.6,131.8z"/>
	<path class="st6" d="M143.6,143.2c4.8-6.4,17.1,2.3,12.3,8.9C151.2,158.7,138.7,149.8,143.6,143.2z"/>
	<path class="st8" d="M146.7,137.4c0.8,1.4,2.8,2.8,2.5,4.7c-0.3,1.9-1,1.9-1.2,2.7c-0.2,0.8-3.9,0.7-2.3,1.3
		c1.7,0.6-2.4,2.8-0.6,2.4c1.8-0.5,4.4-1.7,3.3-0.4c-1.1,1.3-1.2,2.4,0.1,1c1.3-1.4,2.2-1.5,1.3-0.1c-0.9,1.4-1.3,3.4-0.1,1.7
		c1.2-1.6,1.5-1.7,2-0.2c0.5,1.6,0.9,2.4,1.3,0.3c0.4-2.1,0.9-2.1,1.6-1.4c0.7,0.7,0.2-0.2,1-0.6c0.8-0.5,3.2-1,5.4,0.6
		c1.6,1.2,3,2,3.3,1.8c0.2-0.3-0.9-1.7-2.3-3.2c-1.8-1.9-1.7-3.9-1.3-4.7c0.4-0.9,1.3-0.5,0.5-1.1c-0.8-0.7-0.9-1.1,1.2-1.8
		c2.1-0.7,1.2-0.9-0.4-1.3c-1.6-0.4-1.5-0.7-0.1-2c1.5-1.4-0.4-0.8-1.7,0.3c-1.3,1-1.3,0.1-0.1-1.3c1.2-1.4,0.1-1.2-1,0.1
		c-1.1,1.3-0.2-1.5,0.1-3.3c0.3-1.8-1.5,2.5-2.3,0.9c-0.8-1.6-0.2,2.1-1,2.4c-0.8,0.3-0.7,1-2.6,1.5c-1.9,0.5-4.4-0.6-5.8-1.5
		c-0.7-0.4-1.6-1-1.8-0.9C145.4,135.4,145.8,135.7,146.7,137.4z"/>
	<path class="st9" d="M144.6,145.5c0.7-0.4,1.3-0.3,1.6,0.5C145.4,146.4,144.7,146.4,144.6,145.5z"/>
	<path class="st9" d="M144.2,149.2c0-0.9,0.4-1.2,1.2-1.1C145.6,149,145.1,149.3,144.2,149.2z"/>
	<path class="st9" d="M147.2,150c0-0.9,0.3-1.5,1.2-1.1C148.5,149.7,147.8,150.1,147.2,150z"/>
	<path class="st9" d="M148.9,151.5c-0.2-0.8,0.1-1.3,0.9-1.4C150,151,149.6,151.6,148.9,151.5z"/>
	<path class="st9" d="M152.6,152.7c-0.7-0.5-0.8-1.3,0-1.7C153.3,151.6,153.6,152.1,152.6,152.7z"/>
	<path class="st9" d="M156.1,132.6c-0.4,0.8-0.1,1.3,0.7,1.5C157.1,133.3,157.1,132.7,156.1,132.6z"/>
	<path class="st9" d="M159.7,131.8c-1.1-0.1-1.2,0.5-1,1.3C159.6,133.1,159.9,132.6,159.7,131.8z"/>
	<path class="st9" d="M160.8,134.7c-0.9,0.1-1.2,0.5-1,1.3C160.8,136,161.1,135.5,160.8,134.7z"/>
	<path class="st9" d="M162.6,136.1c-0.8-0.5-1.3,0.2-1.3,1.1C162.2,137.4,162.6,137,162.6,136.1z"/>
	<path class="st9" d="M164.2,139.7c-0.6-0.6-1.2-0.7-1.6,0.2C163.2,140.5,163.7,140.4,164.2,139.7z"/>
	<path class="st10" d="M146.6,136.5c0.5,0.6,5.3,3.1,6.1,3.1c1.5,0,2.7-2.2,2.9-1.3c0.1,0.4,2.5-4,2.4-3.8c-0.3,1.3-1,5.1,0.1,4.7
		c0.5-0.2,0.9-0.6,1.5-0.6c-0.1,0.7,0.4,7.2-0.6,8.3c-1.2,1.4-7.1,1.8-8.2,1.5c0-0.5,0.3-1,0.4-1.5c0.2-1.1-3.5,0.3-4.7,0.4
		c-1,0.1,4.6-1.6,4.5-3.9C151.1,142.7,146.3,136.2,146.6,136.5z"/>
</g>
<g>
	<path class="st6" d="M164.7,93.1c9.8-11.2,25.2,14.6,5.7,21.9c-5.1,1.9-11.8,0.2-14.2-5.1c-2-4.4,1.1-9.1,4.9-12.5
		C162.7,95.8,163.8,94,164.7,93.1z"/>
	<path class="st7" d="M165.7,94c9.7-10.8,25.2,14.6,5.7,21.9c-5.1,1.9-11.8,0.2-14.2-5.1c-1.4-3-1.2-6,1.1-8.6
		c1.4-1.6,3.1-2.5,5.2-2.8C163.6,97.3,164.3,95.5,165.7,94z"/>
	<path class="st6" d="M168.4,95.1c-5,4.7,3.7,14.6,8.8,9.9C182.3,100.4,173.5,90.3,168.4,95.1z"/>
	<path class="st6" d="M159.8,104.8c4.1-5.5,14.6,2,10.5,7.6C166.4,117.9,155.7,110.4,159.8,104.8z"/>
	<path class="st8" d="M162.5,99.8c0.7,1.2,2.4,2.4,2.1,4c-0.3,1.6-0.8,1.6-1,2.3c-0.2,0.7-3.4,0.6-1.9,1.1c1.4,0.5-2,2.4-0.5,2
		c1.5-0.4,3.8-1.5,2.8-0.4c-1,1.1-1.1,2,0,0.8c1.1-1.2,1.9-1.3,1.1-0.1c-0.7,1.2-1.1,2.9-0.1,1.5c1-1.4,1.3-1.5,1.7-0.1
		c0.5,1.4,0.8,2.1,1.1,0.3c0.4-1.8,0.7-1.8,1.4-1.2c0.6,0.6,0.2-0.2,0.9-0.5c0.7-0.4,2.8-0.9,4.6,0.5c1.3,1,2.6,1.7,2.8,1.5
		c0.2-0.2-0.8-1.5-2-2.8c-1.5-1.6-1.4-3.3-1.1-4c0.3-0.7,1.1-0.4,0.4-0.9c-0.7-0.6-0.8-0.9,1-1.5c1.8-0.6,1-0.8-0.4-1.1
		s-1.3-0.6-0.1-1.7c1.2-1.2-0.4-0.7-1.5,0.2c-1.1,0.9-1.1,0.1-0.1-1.1c1-1.2,0.1-1-0.8,0c-1,1.1-0.2-1.3,0-2.8
		c0.2-1.5-1.3,2.1-1.9,0.7c-0.6-1.4-0.2,1.8-0.9,2c-0.7,0.3-0.6,0.8-2.2,1.3c-1.6,0.4-3.8-0.5-4.9-1.2c-0.6-0.4-1.3-0.8-1.5-0.7
		C161.4,98.1,161.7,98.4,162.5,99.8z"/>
	<path class="st9" d="M160.7,106.7c0.6-0.4,1.1-0.2,1.3,0.5C161.4,107.5,160.8,107.5,160.7,106.7z"/>
	<path class="st9" d="M160.4,109.8c0-0.7,0.3-1,1-0.9C161.6,109.7,161.1,109.9,160.4,109.8z"/>
	<path class="st9" d="M163,110.5c0-0.7,0.3-1.3,1-0.9C164,110.3,163.4,110.6,163,110.5z"/>
	<path class="st9" d="M164.3,111.9c-0.2-0.7,0.1-1.1,0.8-1.2C165.3,111.4,165,111.9,164.3,111.9z"/>
	<path class="st9" d="M167.5,112.9c-0.6-0.5-0.7-1.1,0-1.4C168.1,111.9,168.3,112.3,167.5,112.9z"/>
	<path class="st9" d="M170.5,95.7c-0.3,0.7-0.1,1.1,0.6,1.3C171.4,96.3,171.4,95.8,170.5,95.7z"/>
	<path class="st9" d="M173.6,95c-0.9-0.1-1,0.4-0.8,1.1C173.5,96.1,173.7,95.7,173.6,95z"/>
	<path class="st9" d="M174.5,97.5c-0.7,0.1-1,0.4-0.8,1.1C174.5,98.7,174.7,98.2,174.5,97.5z"/>
	<path class="st9" d="M176,98.7c-0.7-0.4-1.1,0.2-1.1,0.9C175.7,99.8,176,99.5,176,98.7z"/>
	<path class="st9" d="M177.4,101.8c-0.5-0.5-1-0.6-1.4,0.2C176.5,102.4,177,102.4,177.4,101.8z"/>
	<path class="st10" d="M162.4,99.1c0.4,0.5,4.5,2.6,5.2,2.6c1.3,0,2.3-1.9,2.5-1.1c0.1,0.4,2.1-3.4,2.1-3.2c-0.3,1.1-0.9,4.4,0.1,4
		c0.5-0.1,0.8-0.5,1.3-0.5c-0.1,0.6,0.3,6.1-0.5,7c-1.1,1.2-6.1,1.6-6.9,1.3c0-0.5,0.3-0.8,0.4-1.3c0.2-1-2.9,0.3-4,0.4
		c-0.9,0.1,3.9-1.4,3.8-3.3C166.2,104.4,162.1,98.7,162.4,99.1z"/>
</g>
<g>
	<path class="st6" d="M122.4,152.3c17.1,3.6-0.4,34.2-19.1,18.5c-4.9-4.1-7-11.9-2.9-17.4c3.4-4.6,9.9-4.1,15.6-2.3
		C118.5,151.9,120.9,152,122.4,152.3z"/>
	<path class="st7" d="M122.1,153.8c16.6,3.6-0.4,34.2-19.1,18.5c-4.9-4.1-7-11.9-2.9-17.4c2.3-3.1,5.4-4.7,9.4-3.8
		c2.4,0.5,4.3,1.8,5.8,3.7C117.4,153.6,119.7,153.3,122.1,153.8z"/>
	<path class="st6" d="M122.5,157.2c-7.6-2.4-12.8,12.1-5,14.7C125.1,174.5,130.3,159.7,122.5,157.2z"/>
	<path class="st6" d="M107.6,154.1c7.9,1,6.4,16-1.7,15.1C98,168.4,99.6,153.1,107.6,154.1z"/>
	<path class="st8" d="M114.3,154c-0.8,1.4-1.1,3.8-2.9,4.5c-1.8,0.7-2.1,0.1-3,0.3c-0.8,0.2-2.6-3.1-2.2-1.3
		c0.3,1.8-3.6-0.7-2.4,0.6c1.3,1.3,3.7,3,2,2.7c-1.7-0.4-2.7,0.1-0.8,0.5c1.8,0.5,2.4,1.2,0.7,1.1c-1.7-0.1-3.5,0.5-1.6,0.8
		c2,0.3,2.2,0.4,1.1,1.7c-1.1,1.3-1.7,2,0.4,1.3c2.1-0.7,2.3-0.3,2,0.7c-0.3,1,0.3,0.1,1.1,0.6c0.8,0.5,2.5,2.3,2.2,4.9
		c-0.2,1.9-0.3,3.7,0,3.7c0.3,0.1,1-1.6,1.7-3.6c0.8-2.5,2.5-3.4,3.5-3.4s1.1,1,1.2-0.1c0.2-1,0.5-1.3,2.1,0.2
		c1.6,1.5,1.4,0.6,0.9-1c-0.5-1.6-0.2-1.7,1.7-1.1c1.9,0.6,0.5-0.7-1.1-1.4c-1.5-0.6-0.7-1.1,1.1-0.7c1.8,0.3,1.1-0.5-0.5-0.8
		c-1.7-0.4,1.2-0.9,2.9-1.6c1.7-0.6-2.9-0.1-1.9-1.6c1-1.5-1.9,0.8-2.6,0.3c-0.7-0.6-1.2-0.1-2.6-1.5c-1.4-1.4-1.7-4.1-1.6-5.7
		c0.1-0.8,0.1-1.9-0.1-2C115.4,151.8,115.3,152.3,114.3,154z"/>
	<path class="st9" d="M106.2,156.1c0.7,0.4,0.9,1,0.3,1.6C105.8,157.3,105.5,156.6,106.2,156.1z"/>
	<path class="st9" d="M102.8,157.5c0.7-0.5,1.3-0.3,1.6,0.5C103.6,158.7,103.1,158.3,102.8,157.5z"/>
	<path class="st9" d="M103.6,160.6c0.7-0.5,1.5-0.4,1.6,0.5C104.4,161.6,103.7,161.2,103.6,160.6z"/>
	<path class="st9" d="M103,162.8c0.6-0.6,1.1-0.6,1.6,0.1C104.1,163.5,103.3,163.5,103,162.8z"/>
	<path class="st9" d="M103.8,166.6c0.2-0.8,0.8-1.3,1.4-0.8C105.1,166.6,104.8,167.1,103.8,166.6z"/>
	<path class="st9" d="M123,159.7c-0.9,0.1-1.2,0.5-0.9,1.3C122.9,161,123.5,160.7,123,159.7z"/>
	<path class="st9" d="M125.5,162.5c-0.5-1-1-0.8-1.6-0.2C124.4,163,124.9,163.1,125.5,162.5z"/>
	<path class="st9" d="M123.6,164.9c-0.5-0.7-1-0.8-1.6-0.2C122.4,165.6,122.9,165.5,123.6,164.9z"/>
	<path class="st9" d="M123.2,167.2c0-1-0.8-1-1.5-0.6C121.9,167.4,122.4,167.6,123.2,167.2z"/>
	<path class="st9" d="M120.8,170.3c0.2-0.8,0-1.4-1-1.3C119.6,169.8,120,170.3,120.8,170.3z"/>
	<path class="st10" d="M115,153.4c-0.2,0.7-0.1,6.2,0.3,6.9c0.8,1.3,3.3,1.2,2.5,1.9c-0.3,0.3,4.7,0.2,4.5,0.3
		c-1.3,0.4-4.9,1.6-4.1,2.4c0.4,0.4,0.9,0.5,1.3,1c-0.7,0.3-6,3.9-7.5,3.6c-1.8-0.4-5.1-5.3-5.3-6.4c0.5-0.3,1-0.2,1.6-0.4
		c1.1-0.4-2-2.9-2.7-3.9c-0.6-0.9,3.6,3.2,5.6,2C111.8,160.4,115.1,153,115,153.4z"/>
</g>
<g>
	<path class="st11" d="M172.1,79.8c-13.1,0-23.6,9.8-23.6,21.9s10.6,21.9,23.6,21.9s23.6-9.8,23.6-21.9S185.1,79.8,172.1,79.8z
		 M171.6,120.1c-11,0-20-8.3-20-18.5c0-10.2,8.9-18.5,20-18.5c11,0,20,8.3,20,18.5C191.6,111.8,182.6,120.1,171.6,120.1z"/>
	<path class="st12" d="M171.6,83.1c-11,0-20,8.3-20,18.5c0,10.2,8.9,18.5,20,18.5c11,0,20-8.3,20-18.5
		C191.6,91.4,182.6,83.1,171.6,83.1z M171.6,117c-8.7,0-15.8-6.5-15.8-14.6s7.1-14.6,15.8-14.6c8.7,0,15.8,6.5,15.8,14.6
		S180.3,117,171.6,117z"/>
</g>
<g>
	<path class="st13" d="M48.8,108.4c-13.8,0-24.9,11.2-24.9,24.9s11.2,24.9,24.9,24.9s24.9-11.2,24.9-24.9S62.6,108.4,48.8,108.4z
		 M48.3,154.3c-11.6,0-21-9.4-21-21c0-11.6,9.4-21,21-21c11.6,0,21,9.4,21,21C69.3,144.9,59.9,154.3,48.3,154.3z"/>
	<path class="st12" d="M48.3,112.2c-11.6,0-21,9.4-21,21c0,11.6,9.4,21,21,21c11.6,0,21-9.4,21-21C69.3,121.6,59.9,112.2,48.3,112.2
		z M48.3,150.8c-9.2,0-16.6-7.4-16.6-16.6s7.4-16.6,16.6-16.6c9.2,0,16.6,7.4,16.6,16.6S57.5,150.8,48.3,150.8z"/>
</g>
<g>
	<path class="st14" d="M116.4,55.2c-9.5,0-17.2,7.7-17.2,17.2s7.7,17.2,17.2,17.2s17.2-7.7,17.2-17.2S125.9,55.2,116.4,55.2z
		 M116.1,86.8c-8,0-14.5-6.5-14.5-14.5c0-8,6.5-14.5,14.5-14.5c8,0,14.5,6.5,14.5,14.5C130.6,80.3,124.1,86.8,116.1,86.8z"/>
	<path class="st12" d="M116.1,57.7c-8,0-14.5,6.5-14.5,14.5c0,8,6.5,14.5,14.5,14.5c8,0,14.5-6.5,14.5-14.5
		C130.6,64.2,124.1,57.7,116.1,57.7z M116.1,84.4c-6.3,0-11.5-5.1-11.5-11.5s5.1-11.5,11.5-11.5c6.3,0,11.5,5.1,11.5,11.5
		S122.4,84.4,116.1,84.4z"/>
</g>
<ellipse transform="matrix(0.2813 -0.9596 0.9596 0.2813 -44.3112 230.446)" class="st15" cx="131.7" cy="144.8" rx="6.2" ry="4.4"/>
<ellipse transform="matrix(0.4511 -0.8925 0.8925 0.4511 -55.2581 195.1203)" class="st16" cx="131" cy="142.5" rx="1.7" ry="0.8"/>
<ellipse transform="matrix(0.2813 -0.9596 0.9596 0.2813 -99.6184 193.2662)" class="st15" cx="79.2" cy="163.1" rx="6.2" ry="4.4"/>
<ellipse transform="matrix(0.4511 -0.8925 0.8925 0.4511 -100.4268 158.3509)" class="st16" cx="78.5" cy="160.8" rx="1.7" ry="0.8"/>
<ellipse transform="matrix(0.2813 -0.9596 0.9596 0.2813 -0.9181 139.6964)" class="st15" cx="92.8" cy="70.5" rx="6.2" ry="4.4"/>
<ellipse transform="matrix(0.4511 -0.8925 0.8925 0.4511 -10.254 119.6015)" class="st16" cx="92.1" cy="68.1" rx="1.7" ry="0.8"/>
<ellipse transform="matrix(0.2813 -0.9596 0.9596 0.2813 -56.5382 100.4767)" class="st15" cx="38.8" cy="88" rx="6.2" ry="4.4"/>
<ellipse transform="matrix(0.4511 -0.8925 0.8925 0.4511 -55.5323 81.0317)" class="st16" cx="38.1" cy="85.7" rx="1.7" ry="0.8"/>
<path class="st17" d="M125,131.9c-0.7,0.5-0.9,4,1,6s4.7,1.6,5.2,2c0.6,0.6,1.7,1.8,1.7,1.7c0-0.2,1-6.2-1.3-8.2
	C129.2,131.4,125.7,131.4,125,131.9z"/>
<path class="st18" d="M126.3,133c0,0-1.3,1.3-0.1,3C126.2,136,125.7,134,126.3,133z"/>
<path class="st18" d="M129.9,136.5c0,0-1.5,0.2-0.8,1.6C129.1,138.1,129.1,136.8,129.9,136.5z"/>
<path class="st18" d="M132.1,136.4c0,0-0.3-1.4-1.6-0.6C130.5,135.7,131.7,135.6,132.1,136.4z"/>
<path class="st18" d="M131.2,134c0,0-1.1-1.2-2.3,0.1C128.9,134,130.4,133.4,131.2,134z"/>
<path class="st18" d="M129.2,132.6c0,0-1-1.1-2.1,0.1C127.1,132.7,128.4,132.1,129.2,132.6z"/>
<path class="st18" d="M128,134.8c0,0-1,0.9-0.6,1.9C127.4,136.7,127.3,135.9,128,134.8z"/>
<path class="st18" d="M125.6,132.1c0,0,4.2,2.5,7.2,8.6c0,0-1.6-4.2-3.3-5.8C127.7,133.2,125.6,132.1,125.6,132.1z"/>
<path class="st17" d="M87.6,118.4c-0.7,0.5-0.9,4,1,6s4.7,1.6,5.2,2c0.6,0.6,1.7,1.8,1.7,1.7c0-0.2,1-6.2-1.3-8.2
	C91.8,117.8,88.3,117.9,87.6,118.4z"/>
<path class="st18" d="M88.9,119.4c0,0-1.3,1.3-0.1,3C88.8,122.4,88.3,120.5,88.9,119.4z"/>
<path class="st18" d="M92.5,123c0,0-1.5,0.2-0.8,1.6C91.7,124.5,91.7,123.3,92.5,123z"/>
<path class="st18" d="M94.7,122.8c0,0-0.3-1.4-1.6-0.6C93.1,122.2,94.3,122.1,94.7,122.8z"/>
<path class="st18" d="M93.8,120.4c0,0-1.1-1.2-2.3,0.1C91.5,120.5,92.9,119.9,93.8,120.4z"/>
<path class="st18" d="M91.8,119.1c0,0-1-1.1-2.1,0.1C89.7,119.1,91,118.6,91.8,119.1z"/>
<path class="st18" d="M90.6,121.3c0,0-1,0.9-0.6,1.9C90,123.2,89.9,122.3,90.6,121.3z"/>
<path class="st18" d="M88.2,118.6c0,0,4.2,2.5,7.2,8.6c0,0-1.6-4.2-3.3-5.8C90.3,119.7,88.2,118.6,88.2,118.6z"/>
<path class="st17" d="M40.4,63.1c-0.7,0.5-0.9,4,1,6s4.7,1.6,5.2,2c0.6,0.6,1.7,1.8,1.7,1.7c0-0.2,1-6.2-1.3-8.2
	C44.6,62.6,41.1,62.6,40.4,63.1z"/>
<path class="st18" d="M41.6,64.2c0,0-1.3,1.3-0.1,3C41.5,67.2,41.1,65.2,41.6,64.2z"/>
<path class="st18" d="M45.3,67.7c0,0-1.5,0.2-0.8,1.6C44.5,69.3,44.5,68,45.3,67.7z"/>
<path class="st18" d="M47.5,67.6c0,0-0.3-1.4-1.6-0.6C45.9,66.9,47.1,66.8,47.5,67.6z"/>
<path class="st18" d="M46.6,65.2c0,0-1.1-1.2-2.3,0.1C44.3,65.2,45.7,64.6,46.6,65.2z"/>
<path class="st18" d="M44.6,63.8c0,0-1-1.1-2.1,0.1C42.5,63.9,43.8,63.3,44.6,63.8z"/>
<path class="st18" d="M43.3,66c0,0-1,0.9-0.6,1.9C42.8,67.9,42.7,67.1,43.3,66z"/>
<path class="st18" d="M41,63.3c0,0,4.2,2.5,7.2,8.6c0,0-1.6-4.2-3.3-5.8C43.1,64.4,41,63.3,41,63.3z"/>
<path class="st17" d="M27.7,101.5c-0.7,0.5-0.9,4,1,6s4.7,1.6,5.2,2c0.6,0.6,1.7,1.8,1.7,1.7c0-0.2,1-6.2-1.3-8.2
	C31.9,100.9,28.4,101,27.7,101.5z"/>
<path class="st18" d="M29,102.6c0,0-1.3,1.3-0.1,3C28.9,105.5,28.4,103.6,29,102.6z"/>
<path class="st18" d="M32.6,106.1c0,0-1.5,0.2-0.8,1.6C31.8,107.6,31.8,106.4,32.6,106.1z"/>
<path class="st18" d="M34.8,105.9c0,0-0.3-1.4-1.6-0.6C33.2,105.3,34.4,105.2,34.8,105.9z"/>
<path class="st18" d="M33.9,103.5c0,0-1.1-1.2-2.3,0.1C31.6,103.6,33.1,103,33.9,103.5z"/>
<path class="st18" d="M31.9,102.2c0,0-1-1.1-2.1,0.1C29.8,102.2,31.1,101.7,31.9,102.2z"/>
<path class="st18" d="M30.7,104.4c0,0-1,0.9-0.6,1.9C30.1,106.3,30,105.4,30.7,104.4z"/>
<path class="st18" d="M28.3,101.7c0,0,4.2,2.5,7.2,8.6c0,0-1.6-4.2-3.3-5.8C30.4,102.8,28.3,101.7,28.3,101.7z"/>
<path class="st17" d="M126.3,39.6c-0.7,0.5-0.9,4,1,6c2,2,4.7,1.6,5.2,2c0.6,0.6,1.7,1.8,1.7,1.7s1-6.2-1.3-8.2
	C130.5,39,127,39.1,126.3,39.6z"/>
<path class="st18" d="M127.5,40.6c0,0-1.3,1.3-0.1,3C127.4,43.6,126.9,41.7,127.5,40.6z"/>
<path class="st18" d="M131.1,44.2c0,0-1.5,0.2-0.8,1.6C130.3,45.7,130.4,44.5,131.1,44.2z"/>
<path class="st18" d="M133.4,44c0,0-0.3-1.4-1.6-0.6C131.7,43.4,133,43.3,133.4,44z"/>
<path class="st18" d="M132.4,41.6c0,0-1.1-1.2-2.3,0.1C130.1,41.7,131.6,41.1,132.4,41.6z"/>
<path class="st18" d="M130.4,40.3c0,0-1-1.1-2.1,0.1C128.3,40.3,129.7,39.8,130.4,40.3z"/>
<path class="st18" d="M129.2,42.5c0,0-1,0.9-0.6,1.9C128.6,44.4,128.5,43.5,129.2,42.5z"/>
<path class="st18" d="M126.8,39.8c0,0,4.2,2.5,7.2,8.6c0,0-1.6-4.2-3.3-5.8C128.9,40.9,126.8,39.8,126.8,39.8z"/>
<path class="st17" d="M90,95c0,0.9,2.8,3,5.5,2.5c2.8-0.5,3.9-3,4.6-3.1c0.8-0.2,2.5-0.4,2.3-0.5s-4.5-4.3-7.5-3.5
	C91.9,91.3,90,94.2,90,95z"/>
<path class="st18" d="M91.6,94.6c0,0,0.3,1.8,2.4,1.7C94,96.3,92.1,95.7,91.6,94.6z"/>
<path class="st18" d="M96.6,93.6c0,0-0.7,1.3,0.8,1.5C97.4,95.1,96.4,94.4,96.6,93.6z"/>
<path class="st18" d="M97.7,91.6c0,0-1.4-0.5-1.4,1C96.2,92.6,96.8,91.5,97.7,91.6z"/>
<path class="st18" d="M95.2,91.1c0,0-1.6,0.2-1.2,2C93.9,93,94.2,91.5,95.2,91.1z"/>
<path class="st18" d="M92.9,92c0,0-1.4,0.2-1.1,1.8C91.8,93.7,92.1,92.3,92.9,92z"/>
<path class="st18" d="M94.1,94.2c0,0,0.1,1.3,1.3,1.6C95.3,95.8,94.6,95.3,94.1,94.2z"/>
<path class="st18" d="M90.5,94.7c0,0,4.4-2.1,11.1-1.1c0,0-4.3-1-6.7-0.5C92.6,93.5,90.5,94.7,90.5,94.7z"/>
<path class="st17" d="M83,176.3c0,0.9,2.8,3,5.5,2.5s3.9-3,4.6-3.1c0.8-0.2,2.5-0.4,2.3-0.5s-4.5-4.3-7.5-3.5
	C84.9,172.5,83,175.4,83,176.3z"/>
<path class="st18" d="M84.6,175.9c0,0,0.3,1.8,2.4,1.7C87,177.6,85.2,176.9,84.6,175.9z"/>
<path class="st18" d="M89.6,174.8c0,0-0.7,1.3,0.8,1.5C90.4,176.3,89.4,175.6,89.6,174.8z"/>
<path class="st18" d="M90.7,172.9c0,0-1.4-0.5-1.4,1C89.3,173.9,89.8,172.8,90.7,172.9z"/>
<path class="st18" d="M88.2,172.3c0,0-1.6,0.2-1.2,2C87,174.3,87.3,172.7,88.2,172.3z"/>
<path class="st18" d="M85.9,173.2c0,0-1.4,0.2-1.1,1.8C84.8,175,85.1,173.6,85.9,173.2z"/>
<path class="st18" d="M87.1,175.5c0,0,0.1,1.3,1.3,1.6C88.4,177,87.6,176.6,87.1,175.5z"/>
<path class="st18" d="M83.5,176c0,0,4.4-2.1,11.1-1.1c0,0-4.3-1-6.7-0.5S83.5,176,83.5,176z"/>
<path class="st19" d="M146.1,120.9c0.6,2.4,1.3,4.2,1.3,5.6c-0.1,3.7-3.1,4.2-6.9,4.1c-3.8-0.1-6.8-0.2-6.7-4.5
	c0-1.2,0.9-4.1,1.7-6.5c-4.2-1.8-5.6-4.3-5.6-7.2c0.1-4.9,4.1-7.3,10.7-7.2c6.6,0.2,11.2,2.9,11.1,7.8
	C151.7,115.8,150.6,119.5,146.1,120.9z"/>
<path class="st20" d="M135.5,119.7c0,0,0.5-1.5,2-3.8s-4.5,2.4-4.5,2.4S133.8,118.9,135.5,119.7z"/>
<path class="st20" d="M146.1,120.9c0,0-0.7-3-2.5-5s4.1,0.9,5.6,3.2C149.3,119.1,147.6,120.5,146.1,120.9z"/>
<path class="st19" d="M120,143.5c-0.8-1.1-2.6-2.1-4.6-3.5c0.4-0.7,0.8-1.3,1-2c-1-0.7-3.9-2.6-6.9-3c-3.1-0.5,2.7-2,6.9-1.9
	c-0.4-1.1-0.9-2-1.5-2.8c-3-3.9-8.3-3.1-13.5,1c-5.2,4-6.8,8.5-3.8,12.3c0.7,0.9,1.6,1.7,2.8,2.1c0.7-2.7,2.1-8.1,2.4-5.3
	c0.3,3.1,0.9,5.1,1.1,5.7c0.8-0.1,1.7-0.2,2.6-0.5c0.9,2.3,2.1,5.2,2.8,6.1c2.6,3.4,5,1.5,8-0.8C120.2,148.8,122.2,146.4,120,143.5z
	"/>
<path class="st19" d="M83.1,74.4C76.8,72.6,72.3,74,71,78.7c-0.3,1.2-0.4,2.3-0.1,3.5c2.6-1.1,7.8-3.1,5.7-1.2
	c-2.3,2.1-3.6,3.8-4,4.3c0.5,0.6,1.2,1.2,1.9,1.8c-1.4,2.1-2.9,4.8-3.2,5.9c-1.2,4.1,1.8,5,5.4,6c3.6,1,6.7,1.3,7.7-2.3
	c0.4-1.3,0.2-3.3,0.1-5.8c0.8,0,1.5-0.2,2.2-0.4c0-1.2-0.3-4.7-1.7-7.3c-1.4-2.7,3.2,1,5.6,4.4c0.6-0.9,1.1-2,1.3-2.9
	C93.3,80,89.5,76.2,83.1,74.4z"/>
<path class="st19" d="M122.2,30.3c-3-2.3-5.8-3.6-8-0.7c-0.8,1.1-1.3,3-2.2,5.3c-0.8-0.2-1.5-0.4-2.2-0.4c-0.4,1.1-1.4,4.4-1.1,7.5
	c0.4,3.1-2.6-2.1-3.6-6.1c-0.9,0.6-1.7,1.4-2.3,2.2c-2.9,3.9-0.8,8.8,4.5,12.8c5.3,4,10,4.3,12.9,0.4c0.7-1,1.2-2,1.3-3.2
	c-2.8,0.1-8.4,0.1-5.7-0.9c2.9-1.1,4.7-2.2,5.2-2.6c-0.3-0.8-0.7-1.5-1.2-2.4c2-1.5,4.4-3.4,5.1-4.3
	C127.6,34.4,125.2,32.6,122.2,30.3z"/>
<path class="st19" d="M182,64.3c-3-2.3-5.8-3.6-8-0.7c-0.8,1.1-1.3,3-2.2,5.3c-0.8-0.2-1.5-0.4-2.2-0.4c-0.4,1.1-1.4,4.4-1.1,7.5
	c0.4,3.1-2.6-2.1-3.6-6.1c-0.9,0.6-1.7,1.4-2.3,2.2c-2.9,3.9-0.8,8.8,4.5,12.8c5.3,4,10,4.3,12.9,0.4c0.7-1,1.2-2,1.3-3.2
	c-2.8,0.1-8.4,0.1-5.7-0.9c2.9-1.1,4.7-2.2,5.2-2.6c-0.3-0.8-0.7-1.5-1.2-2.4c2-1.5,4.4-3.4,5.1-4.3C187.5,68.4,185,66.5,182,64.3z"
	/>
<path class="st19" d="M66.4,53.2c0.1,1.8,0.3,3.3,0,4.3c-0.7,2.6-2.9,2.5-5.6,1.9c-2.7-0.7-4.9-1.2-4.1-4.3c0.2-0.8,1.3-2.8,2.2-4.4
	c-2.7-1.9-3.4-4-2.8-6.1c0.9-3.5,4.1-4.6,8.9-3.4c4.7,1.2,7.6,3.9,6.7,7.4C71.2,50.4,69.8,52.9,66.4,53.2z"/>
<path class="st20" d="M58.9,50.6c0,0,0.6-1,2-2.4s-3.6,1-3.6,1S57.8,49.8,58.9,50.6z"/>
<path class="st20" d="M66.4,53.2c0,0,0-2.3-1-4s2.8,1.3,3.6,3.2C68.9,52.4,67.5,53.2,66.4,53.2z"/>
<path class="st19" d="M51.1,114.8c0.6,1.7,1.2,3,1.3,4.1c0.1,2.7-2.1,3.3-4.9,3.4c-2.8,0.1-5,0.2-5.2-2.9c0-0.9,0.4-3.1,0.9-4.9
	c-3.1-1.1-4.4-2.9-4.5-5c-0.2-3.6,2.6-5.6,7.5-5.8c4.9-0.2,8.4,1.6,8.5,5.2C55,110.8,54.4,113.5,51.1,114.8z"/>
<path class="st20" d="M43.3,114.5c0,0,0.3-1.2,1.3-2.9c1-1.7-3.2,2-3.2,2S42,114,43.3,114.5z"/>
<path class="st20" d="M51.1,114.8c0,0-0.7-2.2-2.1-3.5c-1.4-1.3,3.1,0.5,4.3,2.1C53.4,113.3,52.2,114.5,51.1,114.8z"/>
<path class="st19" d="M146.8,49.1c0,1.8,0.2,3.3-0.1,4.3c-0.8,2.6-3,2.4-5.7,1.6c-2.7-0.8-4.8-1.4-3.9-4.4c0.2-0.8,1.4-2.8,2.4-4.3
	c-2.6-2-3.2-4.1-2.6-6.2c1-3.5,4.3-4.5,9-3.1c4.7,1.4,7.4,4.2,6.4,7.6C151.7,46.5,150.3,48.9,146.8,49.1z"/>
<path class="st20" d="M139.4,46.2c0,0,0.7-1,2.1-2.3c1.5-1.3-3.6,0.9-3.6,0.9S138.4,45.4,139.4,46.2z"/>
<path class="st20" d="M146.8,49.1c0,0,0-2.3-0.8-4c-0.9-1.7,2.8,1.5,3.4,3.4C149.4,48.4,147.9,49.2,146.8,49.1z"/>
<path class="st19" d="M110.7,75.3c0,1.8,0.2,3.3-0.1,4.3c-0.8,2.6-3,2.4-5.7,1.6c-2.7-0.8-4.8-1.4-3.9-4.4c0.2-0.8,1.4-2.8,2.4-4.3
	c-2.6-2-3.2-4.1-2.6-6.2c1-3.5,4.3-4.5,9-3.1c4.7,1.4,7.4,4.2,6.4,7.6C115.7,72.7,114.2,75.1,110.7,75.3z"/>
<path class="st20" d="M103.4,72.4c0,0,0.7-1,2.1-2.3c1.5-1.3-3.6,0.9-3.6,0.9S102.3,71.5,103.4,72.4z"/>
<path class="st20" d="M110.7,75.3c0,0,0-2.3-0.8-4c-0.9-1.7,2.8,1.5,3.4,3.4C113.3,74.6,111.9,75.3,110.7,75.3z"/>
<path class="st19" d="M139.3,172.2c0.3,1.8,0.7,3.2,0.6,4.2c-0.3,2.7-2.6,2.9-5.3,2.6c-2.8-0.3-5-0.5-4.7-3.7c0.1-0.9,0.9-3,1.6-4.7
	c-3-1.5-3.9-3.5-3.7-5.6c0.4-3.6,3.5-5.1,8.3-4.6c4.9,0.5,8.1,2.8,7.7,6.4C143.7,168.8,142.7,171.4,139.3,172.2z"/>
<path class="st20" d="M131.6,170.7c0,0,0.5-1.1,1.7-2.6c1.2-1.5-3.4,1.5-3.4,1.5S130.4,170,131.6,170.7z"/>
<path class="st20" d="M139.3,172.2c0,0-0.4-2.3-1.5-3.8c-1.2-1.5,3,0.9,4,2.7C141.8,171.1,140.5,172,139.3,172.2z"/>
<path class="st19" d="M170.1,136.1c1.3-1.3,2.2-2.5,3-3c2.4-1.4,3.9,0.4,5.2,2.8c1.4,2.4,2.5,4.3-0.2,5.9c-0.7,0.4-2.9,1-4.7,1.4
	c0.5,3.3-0.6,5.2-2.4,6.3c-3.1,1.8-6.2,0.2-8.6-4c-2.4-4.2-2.5-8.2,0.7-10C164.8,134.5,167.5,133.8,170.1,136.1z"/>
<path class="st20" d="M173.4,143.2c0,0-1.2,0.3-3.1,0.2c-2-0.1,3.2,1.9,3.2,1.9S173.6,144.6,173.4,143.2z"/>
<path class="st20" d="M170.1,136.1c0,0-1.6,1.6-2.2,3.5s-1-3-0.1-4.8C167.8,134.8,169.3,135.3,170.1,136.1z"/>
<path class="st19" d="M63.8,144.7c1.3-1.3,2.2-2.5,3-3c2.4-1.4,3.9,0.4,5.2,2.8c1.4,2.4,2.5,4.3-0.2,5.9c-0.7,0.4-2.9,1-4.7,1.4
	c0.5,3.3-0.6,5.2-2.4,6.3c-3.1,1.8-6.2,0.2-8.6-4c-2.4-4.2-2.5-8.2,0.7-10C58.4,143.1,61.1,142.4,63.8,144.7z"/>
<path class="st20" d="M67.1,151.8c0,0-1.2,0.3-3.1,0.2c-2-0.1,3.2,1.9,3.2,1.9S67.2,153.2,67.1,151.8z"/>
<path class="st20" d="M63.8,144.7c0,0-1.6,1.6-2.2,3.5c-0.6,1.8-1-3-0.1-4.8C61.4,143.3,63,143.8,63.8,144.7z"/>
</svg>
